<svg width="48" height="48" viewBox="0 0 48 48" fill="none" xmlns="http://www.w3.org/2000/svg">
<circle cx="24" cy="24" r="23.5" fill="white" stroke="#F2F2F2"/>
<path d="M24 16.2493C16.5 16.2493 13.5 24.0001 13.5 24.0001C13.5 24.0001 16.5 31.7493 24 31.7493C31.5 31.7493 34.5 24.0001 34.5 24.0001C34.5 24.0001 31.5 16.2493 24 16.2493V16.2493Z" stroke="#002603" stroke-width="1.5" stroke-linecap="round" stroke-linejoin="round"/>
<path d="M24 27.75C24.9946 27.75 25.9484 27.3549 26.6517 26.6517C27.3549 25.9484 27.75 24.9946 27.75 24C27.75 23.0054 27.3549 22.0516 26.6517 21.3483C25.9484 20.6451 24.9946 20.25 24 20.25C23.0054 20.25 22.0516 20.6451 21.3483 21.3483C20.6451 22.0516 20.25 23.0054 20.25 24C20.25 24.9946 20.6451 25.9484 21.3483 26.6517C22.0516 27.3549 23.0054 27.75 24 27.75V27.75Z" stroke="#002603" stroke-width="1.5" stroke-linecap="round" stroke-linejoin="round"/>
</svg>
