<svg width="26" height="29" viewBox="0 0 26 29" fill="none" xmlns="http://www.w3.org/2000/svg">
<path d="M1.95817 25.309C1.95673 25.8709 2.14058 26.4176 2.48126 26.8645L2.48233 26.8659C2.73237 27.1915 2.98599 27.5143 3.24312 27.8343H2.073C1.96813 27.6999 1.86255 27.5635 1.75589 27.4252L1.36152 27.7293L1.75589 27.4252C1.28947 26.8203 1.0415 26.0706 1.0415 25.3107C1.0415 23.5968 2.278 22.1162 3.98707 21.8667L3.98714 21.8667C10.6956 20.8863 15.3475 20.9739 22.0307 21.8989L22.0308 21.8989C23.7203 22.1323 24.9582 23.5881 24.9582 25.2848V25.2852C24.9588 26.069 24.6887 26.829 24.1936 27.4366C24.083 27.5707 23.9738 27.7029 23.8654 27.8333H22.6671C22.9431 27.5105 23.2157 27.1847 23.4847 26.856C23.8445 26.4165 24.0412 25.8581 24.0415 25.2853C24.045 24.6846 23.8312 24.1028 23.4395 23.6473C23.0474 23.1913 22.5035 22.8925 21.9084 22.8062L21.9052 22.8058C15.2962 21.8907 10.7318 21.8068 4.11952 22.7728C2.87559 22.9543 1.95851 24.0358 1.95817 25.309ZM1.95817 25.309C1.95817 25.3093 1.95817 25.3095 1.95817 25.3098H2.45817L1.95817 25.3083C1.95817 25.3086 1.95817 25.3088 1.95817 25.309ZM21.5683 28.3333H22.2347H21.5683ZM12.9998 14.4583C13.8206 14.4583 14.6333 14.2966 15.3916 13.9825C16.1499 13.6684 16.8389 13.2081 17.4193 12.6277C17.9996 12.0473 18.46 11.3583 18.7741 10.6001C19.0882 9.84178 19.2498 9.02905 19.2498 8.20829C19.2498 7.38753 19.0882 6.57481 18.7741 5.81652C18.46 5.05824 17.9996 4.36924 17.4193 3.78888C16.8389 3.20851 16.1499 2.74814 15.3916 2.43405C14.6333 2.11995 13.8206 1.95829 12.9998 1.95829C11.3422 1.95829 9.75252 2.61677 8.58042 3.78888C7.40832 4.96098 6.74984 6.55069 6.74984 8.20829C6.74984 9.8659 7.40832 11.4556 8.58042 12.6277C9.75252 13.7998 11.3422 14.4583 12.9998 14.4583ZM18.0674 13.2759C16.7234 14.6199 14.9006 15.375 12.9998 15.375C11.0991 15.375 9.27625 14.6199 7.93224 13.2759C6.58823 11.9319 5.83317 10.109 5.83317 8.20829C5.83317 6.30757 6.58823 4.4847 7.93224 3.14069C9.27625 1.79668 11.0991 1.04163 12.9998 1.04163C14.9006 1.04163 16.7234 1.79668 18.0674 3.14069C19.4114 4.4847 20.1665 6.30757 20.1665 8.20829C20.1665 10.109 19.4114 11.9319 18.0674 13.2759Z" fill="white" stroke="white"/>
</svg>
