<svg width="17" height="14" viewBox="0 0 17 14" fill="none" xmlns="http://www.w3.org/2000/svg">
<path id="Shape Copy" d="M10.279 13.1005L15.7725 7.64901C16.2757 7.14663 16.2757 6.33118 15.7725 5.83048L10.279 0.375784C9.77156 -0.126599 8.95024 -0.124079 8.44281 0.375784C7.94043 0.879007 7.94043 1.69109 8.44281 2.19432L11.6566 5.3829L1.34718 5.3829C0.60244 5.3829 -9.72748e-05 5.9846 -9.72748e-05 6.72934C-9.72748e-05 7.47324 0.60244 8.07578 1.34718 8.07578L11.676 8.07578L8.44281 11.2812C7.94043 11.7836 7.94043 12.5965 8.44281 13.0989C8.94942 13.6021 9.77075 13.6029 10.279 13.1005V13.1005Z" fill="white"/>
</svg>
