<svg width="22" height="22" viewBox="0 0 22 22" fill="none" xmlns="http://www.w3.org/2000/svg">
<path d="M6.88571 1C3.70759 1 1 3.868 1 7.59282C1 10.1624 1.99697 12.3258 3.31827 14.1178C4.63504 15.9037 6.33388 17.4028 7.86968 18.6574L10.5195 20.8222C10.8097 21.0593 11.1903 21.0593 11.4805 20.8222L14.1303 18.6574C15.6661 17.4028 17.365 15.9037 18.6817 14.1178C20.003 12.3258 21 10.1624 21 7.59282C21 3.868 18.2924 1 15.1143 1C13.476 1 12.0345 1.92709 11 3.12667C9.96553 1.92709 8.52397 1 6.88571 1Z" fill="#A394D2" stroke="#775EC5" stroke-opacity="0.42" stroke-linecap="round" stroke-linejoin="round"/>
</svg>
