<svg width="29" height="23" viewBox="0 0 29 23" fill="none" xmlns="http://www.w3.org/2000/svg">
<path d="M28.4517 9.54677V10.328C28.4517 10.9752 27.928 11.4999 27.282 11.4999H26.8921L25.6194 20.4251C25.4547 21.5797 24.4677 22.4374 23.3035 22.4374H5.52685C4.36264 22.4374 3.3756 21.5797 3.21092 20.4251L1.93827 11.4999H1.54837C0.902351 11.4999 0.378662 10.9752 0.378662 10.328V9.54677C0.378662 8.89955 0.902351 8.37489 1.54837 8.37489H4.83043L10.0347 1.2059C10.5413 0.508049 11.5166 0.353703 12.2133 0.861271C12.9099 1.36884 13.0639 2.34604 12.5573 3.04394L8.68735 8.37489H20.143L16.2731 3.04389C15.7664 2.34604 15.9205 1.36879 16.6171 0.861222C17.3136 0.353654 18.2891 0.507951 18.7957 1.20585L23.9999 8.37489H27.282C27.928 8.37489 28.4517 8.89955 28.4517 9.54677ZM15.5849 18.1405V12.6718C15.5849 12.0246 15.0612 11.4999 14.4152 11.4999C13.7692 11.4999 13.2455 12.0246 13.2455 12.6718V18.1405C13.2455 18.7877 13.7692 19.3124 14.4152 19.3124C15.0612 19.3124 15.5849 18.7877 15.5849 18.1405ZM21.0435 18.1405V12.6718C21.0435 12.0246 20.5198 11.4999 19.8738 11.4999C19.2278 11.4999 18.7041 12.0246 18.7041 12.6718V18.1405C18.7041 18.7877 19.2278 19.3124 19.8738 19.3124C20.5198 19.3124 21.0435 18.7877 21.0435 18.1405ZM10.1262 18.1405V12.6718C10.1262 12.0246 9.60255 11.4999 8.95653 11.4999C8.31051 11.4999 7.78682 12.0246 7.78682 12.6718V18.1405C7.78682 18.7877 8.31051 19.3124 8.95653 19.3124C9.60255 19.3124 10.1262 18.7877 10.1262 18.1405Z" fill="#EEEEEE"/>
</svg>
