<svg width="11" height="12" viewBox="0 0 11 12" fill="none" xmlns="http://www.w3.org/2000/svg">
<path d="M2.4 5.1843H3.6V6.33637H2.4V5.1843ZM10.8 2.30413V10.3686C10.8 11.0022 10.26 11.5207 9.6 11.5207H1.2C0.88174 11.5207 0.576515 11.3993 0.351472 11.1832C0.126428 10.9672 0 10.6742 0 10.3686L0.00599999 2.30413C0.00599999 1.6705 0.534 1.15207 1.2 1.15207H1.8V0H3V1.15207H7.8V0H9V1.15207H9.6C10.26 1.15207 10.8 1.6705 10.8 2.30413ZM1.2 3.4562H9.6V2.30413H1.2V3.4562ZM9.6 10.3686V4.60827H1.2V10.3686H9.6ZM7.2 6.33637H8.4V5.1843H7.2V6.33637ZM4.8 6.33637H6V5.1843H4.8V6.33637Z" fill="#555555"/>
</svg>
