<svg width="12" height="12" viewBox="0 0 12 12" fill="none" xmlns="http://www.w3.org/2000/svg">
<path d="M6 0C2.6916 0 0 2.58409 0 5.76034C0 8.93659 2.6916 11.5207 6 11.5207C9.3084 11.5207 12 8.93659 12 5.76034C12 2.58409 9.3084 0 6 0ZM6 10.3686C3.3534 10.3686 1.2 8.30122 1.2 5.76034C1.2 3.21945 3.3534 1.15207 6 1.15207C8.6466 1.15207 10.8 3.21945 10.8 5.76034C10.8 8.30122 8.6466 10.3686 6 10.3686Z" fill="#555555"/>
<path d="M6.60015 2.88013H5.40015V5.99877L7.37595 7.89565L8.22435 7.08114L6.60015 5.52182V2.88013Z" fill="#555555"/>
</svg>
