<svg width="40" height="40" viewBox="0 0 40 40" fill="none" xmlns="http://www.w3.org/2000/svg">
<rect width="40" height="40" rx="20" fill="#010000"/>
<path d="M8.95817 32.309C8.95673 32.8709 9.14058 33.4176 9.48126 33.8645L9.48233 33.8659C9.73237 34.1915 9.98599 34.5143 10.2431 34.8343H9.073C8.96813 34.6999 8.86255 34.5635 8.75589 34.4252L8.36152 34.7293L8.75589 34.4252C8.28947 33.8203 8.0415 33.0706 8.0415 32.3107C8.0415 30.5968 9.278 29.1162 10.9871 28.8667L10.9871 28.8667C17.6956 27.8863 22.3475 27.9739 29.0307 28.8989L29.0308 28.8989C30.7203 29.1323 31.9582 30.5881 31.9582 32.2848V32.2852C31.9588 33.069 31.6887 33.829 31.1936 34.4366C31.083 34.5707 30.9738 34.7029 30.8654 34.8333H29.6671C29.9431 34.5105 30.2157 34.1847 30.4847 33.856C30.8445 33.4165 31.0412 32.8581 31.0415 32.2853C31.045 31.6846 30.8312 31.1028 30.4395 30.6473C30.0474 30.1913 29.5035 29.8925 28.9084 29.8062L28.9052 29.8058C22.2962 28.8907 17.7318 28.8068 11.1195 29.7728C9.87559 29.9543 8.95851 31.0358 8.95817 32.309ZM8.95817 32.309C8.95817 32.3093 8.95817 32.3095 8.95817 32.3098H9.45817L8.95817 32.3083C8.95817 32.3086 8.95817 32.3088 8.95817 32.309ZM28.5683 35.3333H29.2347H28.5683ZM19.9998 21.4583C20.8206 21.4583 21.6333 21.2966 22.3916 20.9825C23.1499 20.6684 23.8389 20.2081 24.4193 19.6277C24.9996 19.0473 25.46 18.3583 25.7741 17.6001C26.0882 16.8418 26.2498 16.0291 26.2498 15.2083C26.2498 14.3875 26.0882 13.5748 25.7741 12.8165C25.46 12.0582 24.9996 11.3692 24.4193 10.7889C23.8389 10.2085 23.1499 9.74814 22.3916 9.43405C21.6333 9.11995 20.8206 8.95829 19.9998 8.95829C18.3422 8.95829 16.7525 9.61677 15.5804 10.7889C14.4083 11.961 13.7498 13.5507 13.7498 15.2083C13.7498 16.8659 14.4083 18.4556 15.5804 19.6277C16.7525 20.7998 18.3422 21.4583 19.9998 21.4583ZM25.0674 20.2759C23.7234 21.6199 21.9006 22.375 19.9998 22.375C18.0991 22.375 16.2762 21.6199 14.9322 20.2759C13.5882 18.9319 12.8332 17.109 12.8332 15.2083C12.8332 13.3076 13.5882 11.4847 14.9322 10.1407C16.2762 8.79668 18.0991 8.04163 19.9998 8.04163C21.9006 8.04163 23.7234 8.79668 25.0674 10.1407C26.4114 11.4847 27.1665 13.3076 27.1665 15.2083C27.1665 17.109 26.4114 18.9319 25.0674 20.2759Z" fill="white" stroke="white"/>
<path d="M19.9999 37.25C29.5267 37.25 37.2499 29.5268 37.2499 20C37.2499 10.4732 29.5267 2.74998 19.9999 2.74998C10.4731 2.74998 2.74992 10.4732 2.74992 20C2.74992 29.5268 10.4731 37.25 19.9999 37.25ZM19.9999 39.1666C30.5857 39.1666 39.1666 30.5857 39.1666 20C39.1666 9.41423 30.5857 0.833313 19.9999 0.833313C9.41417 0.833313 0.833252 9.41423 0.833252 20C0.833252 30.5857 9.41417 39.1666 19.9999 39.1666Z" fill="#010000" stroke="black" stroke-width="83"/>
</svg>
