<svg width="24" height="24" viewBox="0 0 24 24" fill="none" xmlns="http://www.w3.org/2000/svg">
<mask id="path-1-inside-1_1_46" fill="white">
<path d="M16.8822 14.926H15.8456L15.4782 14.5685C16.8086 13.0113 17.5397 11.0232 17.5383 8.96719C17.5383 7.26485 17.0381 5.60073 16.1009 4.18529C15.1637 2.76984 13.8316 1.66663 12.2731 1.01517C10.7146 0.363715 8.99968 0.193263 7.34519 0.525374C5.69069 0.857485 4.17094 1.67724 2.97812 2.88098C1.78529 4.08472 0.972969 5.61838 0.64387 7.28801C0.31477 8.95764 0.483676 10.6883 1.12923 12.261C1.77478 13.8338 2.86798 15.178 4.2706 16.1238C5.67321 17.0696 7.32223 17.5744 9.00914 17.5744C11.1217 17.5744 13.0638 16.7931 14.5597 15.4954L14.9139 15.8662V16.9123L21.4748 23.52L23.43 21.547L16.8822 14.926ZM9.00914 14.926C5.74182 14.926 3.10434 12.2644 3.10434 8.96719C3.10434 5.66997 5.74182 3.00836 9.00914 3.00836C12.2765 3.00836 14.9139 5.66997 14.9139 8.96719C14.9139 12.2644 12.2765 14.926 9.00914 14.926Z"/>
</mask>
<path d="M16.8822 14.926L28.9696 2.97217L23.9792 -2.07398H16.8822V14.926ZM15.8456 14.926L3.9897 27.1095L8.93929 31.926H15.8456V14.926ZM15.4782 14.5685L2.5529 3.52598L-7.79664 15.6401L3.62229 26.752L15.4782 14.5685ZM17.5383 8.96719H0.538296L0.538304 8.97915L17.5383 8.96719ZM9.00914 17.5744V0.574394V17.5744ZM14.5597 15.4954L26.8506 3.75093L15.6577 -7.96266L3.41961 2.6541L14.5597 15.4954ZM14.9139 15.8662H31.9139V9.04987L27.2049 4.1217L14.9139 15.8662ZM14.9139 16.9123H-2.08606V23.9186L2.85049 28.8903L14.9139 16.9123ZM21.4748 23.52L9.41138 35.498L21.4869 47.6597L33.5503 35.4859L21.4748 23.52ZM23.43 21.547L35.5054 33.5129L47.351 21.5589L35.5174 9.5931L23.43 21.547ZM16.8822 -2.07398H15.8456V31.926H16.8822V-2.07398ZM27.7015 2.74251L27.3341 2.38499L3.62229 26.752L3.9897 27.1095L27.7015 2.74251ZM28.4035 25.611C32.3775 20.9594 34.5426 15.0468 34.5383 8.95523L0.538304 8.97915C0.536912 6.99974 1.23961 5.06319 2.5529 3.52598L28.4035 25.611ZM34.5383 8.96719C34.5383 3.93684 33.0609 -0.993038 30.2754 -5.19995L1.92635 13.5705C1.01526 12.1945 0.5383 10.5929 0.5383 8.96719H34.5383ZM30.2754 -5.19995C27.4888 -9.4086 23.5118 -12.7124 18.8294 -14.6697L5.71678 16.7C4.15144 16.0457 2.83859 14.9483 1.92635 13.5705L30.2754 -5.19995ZM18.8294 -14.6697C14.1455 -16.6276 8.98232 -17.1424 3.99947 -16.1421L10.6909 17.1929C9.01704 17.5289 7.28374 17.355 5.71678 16.7L18.8294 -14.6697ZM3.99947 -16.1421C-0.982418 -15.1421 -5.53718 -12.6777 -9.09732 -9.08496L15.0536 14.8469C13.8791 16.0322 12.3638 16.8571 10.6909 17.1929L3.99947 -16.1421ZM-9.09732 -9.08496C-12.6558 -5.4939 -15.0619 -0.937311 -16.0352 4.00042L17.323 10.5756C17.0079 12.1741 16.2264 13.6633 15.0536 14.8469L-9.09732 -9.08496ZM-16.0352 4.00042C-17.0083 8.93734 -16.5102 14.0562 -14.5975 18.7162L16.856 5.80586C17.4776 7.32029 17.6379 8.97794 17.323 10.5756L-16.0352 4.00042ZM-14.5975 18.7162C-12.6842 23.3776 -9.43383 27.3867 -5.23359 30.2189L13.7748 2.02877C15.1698 2.96942 16.2338 4.29 16.856 5.80586L-14.5975 18.7162ZM-5.23359 30.2189C-1.0315 33.0523 3.92529 34.5744 9.00914 34.5744V0.574394C10.7192 0.574394 12.3779 1.08688 13.7748 2.02877L-5.23359 30.2189ZM9.00914 34.5744C15.3915 34.5744 21.2484 32.1983 25.6997 28.3367L3.41961 2.6541C4.87911 1.38797 6.85198 0.574394 9.00914 0.574394V34.5744ZM2.26873 27.2399L2.62302 27.6107L27.2049 4.1217L26.8506 3.75093L2.26873 27.2399ZM-2.08606 15.8662V16.9123H31.9139V15.8662H-2.08606ZM2.85049 28.8903L9.41138 35.498L33.5383 11.542L26.9774 4.93428L2.85049 28.8903ZM33.5503 35.4859L35.5054 33.5129L11.3545 9.58101L9.3994 11.554L33.5503 35.4859ZM35.5174 9.5931L28.9696 2.97217L4.7948 26.8799L11.3426 33.5008L35.5174 9.5931ZM9.00914 -2.07398C15.2763 -2.07398 20.1043 3.02189 20.1043 8.96719H-13.8957C-13.8957 21.5069 -3.79268 31.926 9.00914 31.926V-2.07398ZM20.1043 8.96719C20.1043 14.9125 15.2763 20.0084 9.00914 20.0084V-13.9916C-3.79268 -13.9916 -13.8957 -3.57255 -13.8957 8.96719H20.1043ZM9.00914 20.0084C2.74197 20.0084 -2.08606 14.9125 -2.08606 8.96719H31.9139C31.9139 -3.57254 21.811 -13.9916 9.00914 -13.9916V20.0084ZM-2.08606 8.96719C-2.08606 3.02189 2.74197 -2.07398 9.00914 -2.07398V31.926C21.811 31.926 31.9139 21.5069 31.9139 8.96719H-2.08606Z" fill="white" mask="url(#path-1-inside-1_1_46)"/>
</svg>
