<svg width="96" height="96" viewBox="0 0 96 96" fill="none" xmlns="http://www.w3.org/2000/svg">
<rect width="96" height="96" rx="48" fill="#EDF2EE"/>
<path d="M72.9838 30.4949C72.9838 30.2936 72.9349 30.0922 72.8369 29.9021C72.6411 29.5217 72.2616 29.2645 71.8454 29.1862L46.9095 18.1342C46.5056 17.9553 46.0281 17.9553 45.6242 18.1342L20.4435 29.2868C19.9538 29.4994 19.6356 29.9468 19.6111 30.4502V30.4614C19.6111 30.4726 19.6111 30.4837 19.6111 30.5061V58.4939C19.6111 59.0084 19.9294 59.4783 20.4435 59.702L45.6242 70.8546C45.6364 70.8546 45.6364 70.8546 45.6487 70.8658C45.6854 70.877 45.7221 70.8881 45.7588 70.9105C45.7711 70.9105 45.7833 70.9217 45.8078 70.9217C45.8445 70.9329 45.8812 70.9441 45.918 70.9553C45.9302 70.9553 45.9424 70.9664 45.9547 70.9664C45.9914 70.9776 46.0404 70.9776 46.0771 70.9888C46.0893 70.9888 46.1016 70.9888 46.1138 70.9888C46.1628 70.9888 46.224 71 46.273 71C46.3219 71 46.3831 71 46.4321 70.9888C46.4443 70.9888 46.4566 70.9888 46.4688 70.9888C46.5056 70.9888 46.5545 70.9776 46.5912 70.9664C46.6035 70.9664 46.6157 70.9553 46.628 70.9553C46.6647 70.9441 46.7014 70.9329 46.7381 70.9217C46.7504 70.9217 46.7626 70.9105 46.7871 70.9105C46.8238 70.8993 46.8606 70.8881 46.8973 70.8658C46.9095 70.8658 46.9095 70.8658 46.9218 70.8546L72.1759 59.6684C72.6778 59.4447 73.0083 58.9749 73.0083 58.4603V30.5285C72.9838 30.5173 72.9838 30.5061 72.9838 30.4949ZM46.2607 20.8301L68.0995 30.5061L60.0568 34.0745L38.2181 24.3985L46.2607 20.8301ZM46.2607 40.1821L24.422 30.5061L34.8517 25.8862L56.6904 35.5623L46.2607 40.1821ZM22.549 32.665L44.7918 42.5201V67.4987L22.549 57.6437V32.665ZM47.7297 67.4987V42.5201L58.1717 37.889V44.4217C58.1717 45.16 58.8327 45.764 59.6406 45.764C60.4486 45.764 61.1096 45.16 61.1096 44.4217V36.5802L70.0459 32.6203V57.599L47.7297 67.4987Z" fill="#00B307"/>
</svg>
