<svg width="96" height="96" viewBox="0 0 96 96" fill="none" xmlns="http://www.w3.org/2000/svg">
<rect width="96" height="96" rx="48" fill="#EDF2EE"/>
<path d="M63.418 56.416C62.0008 56.416 60.6544 56.9424 59.6388 57.8943C58.6231 58.8575 58.0562 60.1118 58.0562 61.4557C58.0562 62.7996 58.6113 64.054 59.6388 65.0171C60.6663 65.969 62.0008 66.4954 63.418 66.4954C66.3234 66.4954 68.6854 64.2331 68.6854 61.4557C68.6854 58.6783 66.3234 56.416 63.418 56.416ZM63.418 64.2555C61.7882 64.2555 60.4182 62.9788 60.4182 61.4557C60.4182 59.9326 61.7882 58.6559 63.418 58.6559C65.0242 58.6559 66.3234 59.9102 66.3234 61.4557C66.3234 63.0012 65.0242 64.2555 63.418 64.2555ZM64.788 39.6282C64.5754 39.4378 64.292 39.337 63.9967 39.337H57.9381C57.2885 39.337 56.7571 39.841 56.7571 40.4569V49.6404C56.7571 50.2564 57.2885 50.7603 57.9381 50.7603H67.5516C68.2012 50.7603 68.7326 50.2564 68.7326 49.6404V43.492C68.7326 43.1784 68.5909 42.876 68.3429 42.6632L64.788 39.6282ZM66.3706 48.5205H59.1191V41.5657H63.5361L66.3706 43.9847V48.5205ZM34.5775 56.416C33.1603 56.416 31.8139 56.9424 30.7982 57.8943C29.7825 58.8575 29.2156 60.1118 29.2156 61.4557C29.2156 62.7996 29.7707 64.054 30.7982 65.0171C31.8257 65.969 33.1603 66.4954 34.5775 66.4954C37.4828 66.4954 39.8448 64.2331 39.8448 61.4557C39.8448 58.6783 37.4828 56.416 34.5775 56.416ZM34.5775 64.2555C32.9477 64.2555 31.5777 62.9788 31.5777 61.4557C31.5777 59.9326 32.9477 58.6559 34.5775 58.6559C36.1837 58.6559 37.4828 59.9102 37.4828 61.4557C37.4828 63.0012 36.1837 64.2555 34.5775 64.2555ZM26.7001 57.7935H24.3262V54.8145C24.3262 54.1985 23.7947 53.6946 23.1452 53.6946C22.4956 53.6946 21.9642 54.1985 21.9642 54.8145V58.9135C21.9642 59.5294 22.4956 60.0334 23.1452 60.0334H26.7001C27.3496 60.0334 27.8811 59.5294 27.8811 58.9135C27.8811 58.2975 27.3496 57.7935 26.7001 57.7935ZM32.6878 51.6899C32.6878 51.0739 32.1564 50.5699 31.5068 50.5699H17.181C16.5315 50.5699 16 51.0739 16 51.6899C16 52.3058 16.5315 52.8098 17.181 52.8098H31.5068C32.1564 52.8098 32.6878 52.317 32.6878 51.6899ZM19.5785 47.6469L33.9043 47.7253C34.5539 47.7253 35.0853 47.2325 35.0971 46.6166C35.1089 45.9894 34.5775 45.4854 33.9279 45.4854L19.6021 45.407C19.5903 45.407 19.5903 45.407 19.5903 45.407C18.9407 45.407 18.4093 45.8998 18.4093 46.5158C18.3975 47.1429 18.9289 47.6469 19.5785 47.6469ZM21.9878 42.5624H36.3136C36.9631 42.5624 37.4946 42.0584 37.4946 41.4425C37.4946 40.8265 36.9631 40.3225 36.3136 40.3225H21.9878C21.3382 40.3225 20.8068 40.8265 20.8068 41.4425C20.8068 42.0584 21.3382 42.5624 21.9878 42.5624ZM73.563 41.0505L65.1069 34.4093C64.8943 34.2413 64.6345 34.1517 64.351 34.1517H54.4068V30.1199C54.4068 29.504 53.8754 29 53.2258 29H23.1452C22.4956 29 21.9642 29.504 21.9642 30.1199V38.3179C21.9642 38.9338 22.4956 39.4378 23.1452 39.4378C23.7947 39.4378 24.3262 38.9338 24.3262 38.3179V31.2399H52.0566V57.7935H42.3722C41.7227 57.7935 41.1912 58.2975 41.1912 58.9135C41.1912 59.5294 41.7227 60.0334 42.3722 60.0334H56.7925C57.4421 60.0334 57.9735 59.5294 57.9735 58.9135C57.9735 58.2975 57.4421 57.7935 56.7925 57.7935H54.4186V36.3916H63.9377L71.638 42.4392L71.5553 57.7711H70.327C69.6775 57.7711 69.146 58.2751 69.146 58.8911C69.146 59.507 69.6775 60.011 70.327 60.011H72.7245C73.3741 60.011 73.9055 59.5182 73.9055 58.9023L74 41.924C73.9882 41.5881 73.8347 41.2633 73.563 41.0505Z" fill="#00B307"/>
</svg>
