<svg width="96" height="96" viewBox="0 0 96 96" fill="none" xmlns="http://www.w3.org/2000/svg">
<rect width="96" height="96" rx="48" fill="#EDF2EE"/>
<g clip-path="url(#clip0_5_16233)">
<path d="M67.5061 38.1534V36.1158C67.5061 31.2389 65.6019 26.7071 62.1499 23.3445C58.6118 19.8929 53.7469 18 48.4398 18H46.5848C41.2776 18 36.4128 19.8929 32.8747 23.3445C29.4226 26.7071 27.5184 31.2389 27.5184 36.1158V38.1534C23.3292 38.4095 20 41.5716 20 45.4353V48.6197C20 52.6393 23.6118 55.9128 28.0467 55.9128H32.5798C33.3907 55.9128 34.054 55.3116 34.054 54.5767V39.4672C34.054 38.7324 33.3907 38.1311 32.5798 38.1311H30.4668V36.1158C30.4668 27.3084 37.3956 20.6723 46.5725 20.6723H48.4275C57.6167 20.6723 64.5331 27.3084 64.5331 36.1158V38.1311H62.4201C61.6093 38.1311 60.9459 38.7324 60.9459 39.4672V54.5655C60.9459 55.3004 61.6093 55.9017 62.4201 55.9017H64.484C63.882 62.8718 58.5872 64.4863 56.1302 64.8538C55.4545 62.9721 53.5012 61.6137 51.2039 61.6137H47.5184C44.6683 61.6137 42.3464 63.7181 42.3464 66.3013C42.3464 68.8845 44.6683 71 47.5184 71H51.2162C53.5995 71 55.6019 69.5303 56.2039 67.5483C57.4078 67.3924 59.312 67.0027 61.2039 66.0006C63.8698 64.5866 67.027 61.7027 67.4447 55.8905C71.6584 55.6567 75 52.4834 75 48.6086V45.4242C75.0123 41.5716 71.6953 38.3983 67.5061 38.1534ZM31.1302 53.2294H28.0712C25.258 53.2294 22.973 51.1584 22.973 48.6086V45.4242C22.973 42.8744 25.258 40.8034 28.0712 40.8034H31.1302V53.2294ZM51.2162 68.3277H47.5184C46.2899 68.3277 45.2948 67.4258 45.2948 66.3124C45.2948 65.1989 46.2899 64.2971 47.5184 64.2971H51.2162C52.4447 64.2971 53.4398 65.1989 53.4398 66.3124C53.4398 67.4258 52.4447 68.3277 51.2162 68.3277ZM72.0639 48.6086C72.0639 51.1584 69.7788 53.2294 66.9656 53.2294H63.9066V40.8034H66.9656C69.7788 40.8034 72.0639 42.8744 72.0639 45.4242V48.6086Z" fill="#00B307"/>
</g>
<defs>
<clipPath id="clip0_5_16233">
<rect width="57" height="53" fill="white" transform="translate(18 18)"/>
</clipPath>
</defs>
</svg>
