<svg width="27" height="27" viewBox="0 0 27 27" fill="none" xmlns="http://www.w3.org/2000/svg">
<path d="M8.35714 1C4.38449 1 1 4.585 1 9.24103C1 12.453 2.24621 15.1572 3.89784 17.3973C5.5438 19.6297 7.66735 21.5035 9.58711 23.0718L12.8994 25.7777C13.2622 26.0741 13.7378 26.0741 14.1006 25.7777L17.4129 23.0718C19.3326 21.5035 21.4562 19.6297 23.1022 17.3973C24.7538 15.1572 26 12.453 26 9.24103C26 4.585 22.6155 1 18.6429 1C16.595 1 14.7931 2.15886 13.5 3.65833C12.2069 2.15886 10.405 1 8.35714 1Z" fill="#A394D2" fill-opacity="0.1" stroke="#775EC5" stroke-linecap="round" stroke-linejoin="round"/>
</svg>
