<svg width="45" height="41" viewBox="0 0 45 41" fill="none" xmlns="http://www.w3.org/2000/svg">
<path d="M44.9943 14.4V15.6522C44.9943 16.6895 44.1549 17.5304 43.1195 17.5304H42.4946L40.4548 31.8353C40.1909 33.6859 38.6089 35.0606 36.743 35.0606H8.2513C6.38536 35.0606 4.80337 33.6859 4.53942 31.8353L2.49968 17.5304H1.87476C0.839346 17.5304 0 16.6895 0 15.6522V14.4C0 13.3627 0.839346 12.5218 1.87476 12.5218H7.13511L15.4762 1.03161C16.2882 -0.0868812 17.8515 -0.33426 18.9681 0.479249C20.0846 1.29276 20.3314 2.85897 19.5194 3.97754L13.3168 12.5218H31.6775L25.4749 3.97746C24.6629 2.85897 24.9098 1.29268 26.0263 0.479171C27.1426 -0.334339 28.7061 -0.0870377 29.5181 1.03153L37.8592 12.5218H43.1195C44.1549 12.5218 44.9943 13.3627 44.9943 14.4ZM24.3719 28.1737V19.4086C24.3719 18.3713 23.5326 17.5304 22.4971 17.5304C21.4617 17.5304 20.6224 18.3713 20.6224 19.4086V28.1737C20.6224 29.211 21.4617 30.0519 22.4971 30.0519C23.5326 30.0519 24.3719 29.211 24.3719 28.1737ZM33.1208 28.1737V19.4086C33.1208 18.3713 32.2814 17.5304 31.246 17.5304C30.2106 17.5304 29.3713 18.3713 29.3713 19.4086V28.1737C29.3713 29.211 30.2106 30.0519 31.246 30.0519C32.2814 30.0519 33.1208 29.211 33.1208 28.1737ZM15.623 28.1737V19.4086C15.623 18.3713 14.7837 17.5304 13.7483 17.5304C12.7128 17.5304 11.8735 18.3713 11.8735 19.4086V28.1737C11.8735 29.211 12.7128 30.0519 13.7483 30.0519C14.7837 30.0519 15.623 29.211 15.623 28.1737Z" fill="#EEEEEE"/>
</svg>
