<svg width="15" height="14" viewBox="0 0 15 14" fill="none" xmlns="http://www.w3.org/2000/svg">
<path d="M7.59351 3.22656C7.43396 3.22656 7.28095 3.16318 7.16814 3.05037C7.05532 2.93755 6.99194 2.78454 6.99194 2.625V1.3125C6.99194 1.15296 7.05532 0.999946 7.16814 0.887131C7.28095 0.774316 7.43396 0.710938 7.59351 0.710938C7.75305 0.710938 7.90606 0.774316 8.01887 0.887131C8.13169 0.999946 8.19507 1.15296 8.19507 1.3125V2.625C8.19507 2.78454 8.13169 2.93755 8.01887 3.05037C7.90606 3.16318 7.75305 3.22656 7.59351 3.22656ZM7.59351 13.2891C7.43396 13.2891 7.28095 13.2257 7.16814 13.1129C7.05532 13.0001 6.99194 12.847 6.99194 12.6875V11.375C6.99194 11.2155 7.05532 11.0624 7.16814 10.9496C7.28095 10.8368 7.43396 10.7734 7.59351 10.7734C7.75305 10.7734 7.90606 10.8368 8.01887 10.9496C8.13169 11.0624 8.19507 11.2155 8.19507 11.375V12.6875C8.19507 12.847 8.13169 13.0001 8.01887 13.1129C7.90606 13.2257 7.75305 13.2891 7.59351 13.2891ZM10.6872 4.50789C10.5682 4.50788 10.452 4.4726 10.353 4.40651C10.2541 4.34043 10.177 4.24651 10.1315 4.13662C10.086 4.02673 10.074 3.9058 10.0972 3.78913C10.1204 3.67246 10.1776 3.56528 10.2617 3.48113L11.1898 2.55309C11.3031 2.44272 11.4553 2.38143 11.6134 2.38247C11.7716 2.38351 11.923 2.44681 12.0349 2.55865C12.1467 2.6705 12.21 2.82189 12.211 2.98006C12.2121 3.13823 12.1508 3.29044 12.0404 3.40375L11.1124 4.3318C11.0566 4.3877 10.9903 4.43204 10.9173 4.46226C10.8444 4.49248 10.7662 4.50799 10.6872 4.50789ZM3.57179 11.6233C3.4528 11.6233 3.3365 11.588 3.23758 11.5218C3.13865 11.4557 3.06156 11.3618 3.01605 11.2518C2.97053 11.1419 2.95864 11.0209 2.98188 10.9042C3.00512 10.7875 3.06244 10.6804 3.14659 10.5962L4.07464 9.6682C4.13022 9.61113 4.19659 9.56567 4.26989 9.53446C4.34318 9.50325 4.42195 9.48691 4.50161 9.48638C4.58127 9.48586 4.66025 9.50116 4.73395 9.53141C4.80765 9.56165 4.87461 9.60623 4.93094 9.66256C4.98727 9.7189 5.03186 9.78586 5.0621 9.85956C5.09234 9.93326 5.10765 10.0122 5.10712 10.0919C5.1066 10.1716 5.09026 10.2503 5.05904 10.3236C5.02783 10.3969 4.98237 10.4633 4.9253 10.5189L3.99726 11.4469C3.94145 11.5029 3.87514 11.5473 3.80212 11.5776C3.7291 11.6078 3.65083 11.6234 3.57179 11.6233ZM13.281 7.60156H11.9685C11.809 7.60156 11.656 7.53818 11.5431 7.42537C11.4303 7.31255 11.3669 7.15954 11.3669 7C11.3669 6.84046 11.4303 6.68745 11.5431 6.57463C11.656 6.46182 11.809 6.39844 11.9685 6.39844H13.281C13.4405 6.39844 13.5936 6.46182 13.7064 6.57463C13.8192 6.68745 13.8826 6.84046 13.8826 7C13.8826 7.15954 13.8192 7.31255 13.7064 7.42537C13.5936 7.53818 13.4405 7.60156 13.281 7.60156ZM3.21851 7.60156H1.90601C1.74646 7.60156 1.59345 7.53818 1.48064 7.42537C1.36782 7.31255 1.30444 7.15954 1.30444 7C1.30444 6.84046 1.36782 6.68745 1.48064 6.57463C1.59345 6.46182 1.74646 6.39844 1.90601 6.39844H3.21851C3.37805 6.39844 3.53106 6.46182 3.64387 6.57463C3.75669 6.68745 3.82007 6.84046 3.82007 7C3.82007 7.15954 3.75669 7.31255 3.64387 7.42537C3.53106 7.53818 3.37805 7.60156 3.21851 7.60156ZM11.6152 11.6233C11.5362 11.6234 11.4579 11.6078 11.3849 11.5776C11.3119 11.5473 11.2456 11.5029 11.1898 11.4469L10.2617 10.5189C10.1513 10.4056 10.0901 10.2533 10.0911 10.0952C10.0921 9.93701 10.1554 9.78561 10.2673 9.67377C10.3791 9.56192 10.5305 9.49863 10.6887 9.49759C10.8469 9.49655 10.9991 9.55784 11.1124 9.6682L12.0404 10.5962C12.1246 10.6804 12.1819 10.7875 12.2051 10.9042C12.2284 11.0209 12.2165 11.1419 12.171 11.2518C12.1254 11.3618 12.0484 11.4557 11.9494 11.5218C11.8505 11.588 11.7342 11.6233 11.6152 11.6233ZM4.49983 4.50789C4.42085 4.50805 4.34261 4.49256 4.26964 4.46234C4.19666 4.43212 4.13039 4.38775 4.07464 4.3318L3.14659 3.40375C3.03623 3.29044 2.97493 3.13823 2.97598 2.98006C2.97702 2.82189 3.04031 2.6705 3.15216 2.55865C3.264 2.44681 3.4154 2.38351 3.57356 2.38247C3.73173 2.38143 3.88395 2.44272 3.99726 2.55309L4.9253 3.48113C5.00938 3.56528 5.06662 3.67246 5.0898 3.78913C5.11297 3.9058 5.10103 4.02673 5.0555 4.13662C5.00996 4.24651 4.93287 4.34043 4.83397 4.40651C4.73506 4.4726 4.61878 4.50788 4.49983 4.50789ZM7.59351 9.78906C7.04188 9.78906 6.50264 9.62549 6.04399 9.31902C5.58533 9.01256 5.22785 8.57696 5.01675 8.06733C4.80565 7.55769 4.75042 6.99691 4.85803 6.45588C4.96565 5.91486 5.23128 5.41789 5.62134 5.02783C6.0114 4.63778 6.50836 4.37215 7.04939 4.26453C7.59041 4.15691 8.1512 4.21214 8.66083 4.42324C9.17047 4.63434 9.60606 4.99182 9.91253 5.45048C10.219 5.90914 10.3826 6.44838 10.3826 7C10.3817 7.73944 10.0876 8.44834 9.56471 8.97121C9.04185 9.49407 8.33294 9.78819 7.59351 9.78906Z" fill="#52535F"/>
</svg>
