<svg width="25" height="23" viewBox="0 0 25 23" fill="none" xmlns="http://www.w3.org/2000/svg">
<path d="M24.9988 9.39112V10.0868C24.9988 10.6631 24.5325 11.1302 23.9572 11.1302H23.6101L22.4768 19.0774C22.3302 20.1055 21.4514 20.8692 20.4147 20.8692H4.58601C3.54938 20.8692 2.67049 20.1055 2.52386 19.0774L1.39067 11.1302H1.04349C0.468257 11.1302 0.00195312 10.6631 0.00195312 10.0868V9.39112C0.00195312 8.81482 0.468257 8.34765 1.04349 8.34765H3.9659L8.59986 1.96423C9.05098 1.34285 9.91944 1.20541 10.5398 1.65736C11.16 2.10931 11.2972 2.97943 10.8461 3.60086L7.40019 8.34765H17.6005L14.1547 3.60081C13.7036 2.97943 13.8407 2.10927 14.461 1.65732C15.0812 1.20537 15.9498 1.34276 16.4009 1.96418L21.0348 8.34765H23.9572C24.5325 8.34765 24.9988 8.81482 24.9988 9.39112ZM13.5419 17.0432V12.1737C13.5419 11.5974 13.0756 11.1302 12.5004 11.1302C11.9251 11.1302 11.4588 11.5974 11.4588 12.1737V17.0432C11.4588 17.6195 11.9251 18.0866 12.5004 18.0866C13.0756 18.0866 13.5419 17.6195 13.5419 17.0432ZM18.4024 17.0432V12.1737C18.4024 11.5974 17.9361 11.1302 17.3609 11.1302C16.7856 11.1302 16.3193 11.5974 16.3193 12.1737V17.0432C16.3193 17.6195 16.7856 18.0866 17.3609 18.0866C17.9361 18.0866 18.4024 17.6195 18.4024 17.0432ZM8.68141 17.0432V12.1737C8.68141 11.5974 8.2151 11.1302 7.63987 11.1302C7.06464 11.1302 6.59834 11.5974 6.59834 12.1737V17.0432C6.59834 17.6195 7.06464 18.0866 7.63987 18.0866C8.2151 18.0866 8.68141 17.6195 8.68141 17.0432Z" fill="#EEEEEE"/>
</svg>
